#N canvas 953 0 958 988 12;
#X obj 36 524 else/sig2float~;
#X floatatom 36 577 5 0 0 0 - - -;
#X msg 12 279 1 \$1;
#X obj 88 345 pack f f;
#X floatatom 88 321 5 0 0 0 - - -;
#X floatatom 141 320 5 0 0 0 - - -;
#X obj 120 199 float;
#X obj 217 13 inlet;
#X floatatom 217 82 5 0 0 0 - - -;
#X floatatom 257 82 5 0 0 0 - - -;
#X floatatom 297 82 5 0 0 0 - - -;
#X floatatom 337 82 5 0 0 0 - - -;
#X obj 252 349 float;
#X obj 88 291 float;
#X obj 284 213 +;
#X floatatom 284 241 5 0 0 0 - - -;
#X obj 15 49 bng 15 250 50 0 empty empty empty 17 7 0 10 -262144 -1
-1;
#X obj 284 157 t b f;
#X obj 284 184 f;
#X obj 252 269 float;
#X obj 220 407 pack f f;
#X floatatom 252 376 5 0 0 0 - - -;
#X obj 12 456 vline~;
#X obj 220 295 delay;
#X obj 220 322 t b b;
#X msg 220 376 0;
#X obj 88 227 delay;
#X obj 88 257 t b b;
#X obj 141 290 float;
#X obj 12 229 float;
#X floatatom 12 254 5 0 0 0 - - -;
#X obj 15 73 t b b b b b;
#X obj 11 634 outlet~;
#X obj 39 552 hsl 128 15 0 1 0 0 empty empty empty -2 -8 0 10 -262144
-1 -1 0 1;
#X obj 15 20 inlet;
#X obj 217 45 unpack f f f f;
#X text 265 68 D1;
#X text 345 68 D2;
#X text 223 68 ATT;
#X text 299 68 DEST;
#X connect 0 0 33 0;
#X connect 2 0 22 0;
#X connect 3 0 22 0;
#X connect 4 0 3 0;
#X connect 5 0 3 1;
#X connect 6 0 26 1;
#X connect 7 0 35 0;
#X connect 8 0 18 0;
#X connect 8 0 6 1;
#X connect 8 0 29 1;
#X connect 9 0 17 0;
#X connect 9 0 28 1;
#X connect 10 0 13 1;
#X connect 11 0 12 1;
#X connect 12 0 21 0;
#X connect 13 0 4 0;
#X connect 14 0 15 0;
#X connect 15 0 19 1;
#X connect 16 0 31 0;
#X connect 17 0 18 0;
#X connect 17 1 14 1;
#X connect 18 0 14 0;
#X connect 19 0 23 1;
#X connect 20 0 22 0;
#X connect 21 0 20 1;
#X connect 22 0 0 0;
#X connect 22 0 32 0;
#X connect 23 0 24 0;
#X connect 24 0 25 0;
#X connect 24 1 12 0;
#X connect 25 0 20 0;
#X connect 26 0 27 0;
#X connect 27 0 13 0;
#X connect 27 1 28 0;
#X connect 28 0 5 0;
#X connect 29 0 30 0;
#X connect 30 0 2 0;
#X connect 31 0 29 0;
#X connect 31 1 26 0;
#X connect 31 2 6 0;
#X connect 31 3 23 0;
#X connect 31 4 19 0;
#X connect 33 0 1 0;
#X connect 34 0 16 0;
#X connect 35 0 8 0;
#X connect 35 1 9 0;
#X connect 35 2 10 0;
#X connect 35 3 11 0;
