#N canvas 464 241 1920 997 12;
#X obj 489 388 +;
#X floatatom 489 426 7 0 0 0 - - -;
#X obj 489 522 +;
#X msg 664 398 0;
#X obj 664 422 t f f;
#X obj 843 387 +;
#X floatatom 843 424 7 0 0 0 - - -;
#X obj 843 498 +;
#X floatatom 843 555 10 0 0 0 - - -;
#X floatatom 489 312 10 0 0 0 - - -;
#X floatatom 843 311 10 0 0 0 - - -;
#X obj 664 318 loadbang;
#X obj 489 287 cyclone/scale 0 1 -1 1;
#X obj 843 287 cyclone/scale 0 1 -1 1;
#X floatatom 489 560 7 0 0 0 - - -;
#X obj 95 354 f;
#X obj 95 331 bng 15 250 50 0 empty empty empty 17 7 0 10 -262144 -1
-1;
#X obj 489 355 spigot;
#X obj 548 357 tgl 15 0 empty empty empty 17 7 0 10 -262144 -1 -1 1
1;
#X obj 95 483 f;
#X obj 95 507 > 0;
#X obj 95 438 sel 1;
#X obj 95 463 bng 15 250 50 0 empty empty empty 17 7 0 10 -262144 -1
-1;
#X obj 224 488 f;
#X obj 224 443 sel 1;
#X obj 224 468 bng 15 250 50 0 empty empty empty 17 7 0 10 -262144
-1 -1;
#X obj 224 518 < 0;
#X msg 95 732 0;
#X obj 95 707 bng 15 250 50 0 empty empty empty 17 7 0 10 -262144 -1
-1;
#X obj 95 679 spigot;
#X obj 152 664 tgl 15 0 empty empty empty 17 7 0 10 -262144 -1 -1 0
1;
#X obj 95 764 t f f f;
#X msg 152 643 1;
#X obj 95 378 t f f f f;
#X obj 152 581 &&;
#X obj 152 606 sel 1;
#X obj 843 355 spigot;
#X obj 902 357 tgl 15 0 empty empty empty 17 7 0 10 -262144 -1 -1 1
1;
#X obj 1402 352 f;
#X obj 1402 329 bng 15 250 50 0 empty empty empty 17 7 0 10 -262144
-1 -1;
#X obj 1402 481 f;
#X obj 1402 505 > 0;
#X obj 1402 436 sel 1;
#X obj 1402 461 bng 15 250 50 0 empty empty empty 17 7 0 10 -262144
-1 -1;
#X obj 1531 486 f;
#X obj 1531 441 sel 1;
#X obj 1531 466 bng 15 250 50 0 empty empty empty 17 7 0 10 -262144
-1 -1;
#X obj 1531 516 < 0;
#X msg 1402 730 0;
#X obj 1402 705 bng 15 250 50 0 empty empty empty 17 7 0 10 -262144
-1 -1;
#X obj 1402 677 spigot;
#X obj 1459 662 tgl 15 0 empty empty empty 17 7 0 10 -262144 -1 -1
1 1;
#X obj 1402 762 t f f f;
#X msg 1459 641 1;
#X obj 1402 376 t f f f f;
#X obj 1459 579 &&;
#X obj 1459 604 sel 1;
#X obj 664 342 bng 15 250 50 0 empty empty empty 17 7 0 10 -262144
-1 -1;
#X obj 473 58 inlet;
#X obj 531 58 inlet;
#X obj 592 58 inlet;
#X text 486 35 x;
#X text 541 35 y;
#X text 601 35 z;
#X floatatom 473 82 5 0 0 0 - - -;
#X floatatom 531 82 5 0 0 0 - - -;
#X floatatom 592 82 5 0 0 0 - - -;
#X obj 623 737 outlet;
#X obj 696 737 outlet;
#X text 623 757 x angle;
#X text 696 757 y angle;
#X obj 774 737 outlet;
#X obj 867 716 outlet;
#X text 774 757 x pos;
#X text 867 736 y pos;
#X obj 95 414 < -4000;
#X obj 224 418 > 4000;
#X obj 152 556 > -4000;
#X obj 210 556 < 4000;
#X obj 509 598 cyclone/scale -4000 4000 0.5 1;
#X obj 867 597 cyclone/scale -4000 4000 0.5 1;
#X obj 1459 554 > -4000;
#X obj 1517 554 < 4000;
#X obj 1531 416 > 4000;
#X obj 1402 412 < -4000;
#X connect 0 0 1 0;
#X connect 1 0 2 0;
#X connect 1 0 0 1;
#X connect 2 0 14 0;
#X connect 3 0 4 0;
#X connect 4 0 7 0;
#X connect 4 0 0 0;
#X connect 4 0 5 0;
#X connect 4 0 2 0;
#X connect 4 1 2 1;
#X connect 4 1 7 1;
#X connect 4 1 0 1;
#X connect 4 1 5 1;
#X connect 5 0 6 0;
#X connect 6 0 7 0;
#X connect 6 0 5 1;
#X connect 7 0 8 0;
#X connect 8 0 7 1;
#X connect 8 0 38 1;
#X connect 8 0 80 0;
#X connect 9 0 16 0;
#X connect 9 0 17 0;
#X connect 9 0 19 1;
#X connect 9 0 23 1;
#X connect 10 0 36 0;
#X connect 10 0 39 0;
#X connect 10 0 40 1;
#X connect 10 0 44 1;
#X connect 11 0 57 0;
#X connect 12 0 9 0;
#X connect 12 0 67 0;
#X connect 13 0 10 0;
#X connect 13 0 68 0;
#X connect 14 0 2 1;
#X connect 14 0 15 1;
#X connect 14 0 79 0;
#X connect 15 0 33 0;
#X connect 16 0 15 0;
#X connect 17 0 0 0;
#X connect 18 0 17 1;
#X connect 19 0 20 0;
#X connect 20 0 18 0;
#X connect 20 0 29 0;
#X connect 21 0 22 0;
#X connect 22 0 19 0;
#X connect 23 0 26 0;
#X connect 24 0 25 0;
#X connect 25 0 23 0;
#X connect 26 0 18 0;
#X connect 26 0 29 0;
#X connect 27 0 31 0;
#X connect 28 0 27 0;
#X connect 29 0 28 0;
#X connect 30 0 29 1;
#X connect 31 0 30 0;
#X connect 31 1 0 0;
#X connect 31 2 0 1;
#X connect 32 0 30 0;
#X connect 33 0 75 0;
#X connect 33 1 76 0;
#X connect 33 2 77 0;
#X connect 33 3 78 0;
#X connect 34 0 35 0;
#X connect 35 0 32 0;
#X connect 36 0 5 0;
#X connect 37 0 36 1;
#X connect 38 0 54 0;
#X connect 39 0 38 0;
#X connect 40 0 41 0;
#X connect 41 0 50 0;
#X connect 41 0 37 0;
#X connect 42 0 43 0;
#X connect 43 0 40 0;
#X connect 44 0 47 0;
#X connect 45 0 46 0;
#X connect 46 0 44 0;
#X connect 47 0 50 0;
#X connect 47 0 37 0;
#X connect 48 0 52 0;
#X connect 49 0 48 0;
#X connect 50 0 49 0;
#X connect 51 0 50 1;
#X connect 52 0 51 0;
#X connect 52 1 5 0;
#X connect 52 2 5 1;
#X connect 53 0 51 0;
#X connect 54 0 84 0;
#X connect 54 1 83 0;
#X connect 54 2 81 0;
#X connect 54 3 82 0;
#X connect 55 0 56 0;
#X connect 56 0 53 0;
#X connect 57 0 3 0;
#X connect 57 0 18 0;
#X connect 57 0 37 0;
#X connect 58 0 64 0;
#X connect 59 0 65 0;
#X connect 60 0 66 0;
#X connect 64 0 12 0;
#X connect 65 0 13 0;
#X connect 75 0 21 0;
#X connect 76 0 24 0;
#X connect 77 0 34 0;
#X connect 78 0 34 1;
#X connect 79 0 71 0;
#X connect 80 0 72 0;
#X connect 81 0 55 0;
#X connect 82 0 55 1;
#X connect 83 0 45 0;
#X connect 84 0 42 0;
