#N canvas 1098 253 638 607 12;
#X obj 28 90 t f f;
#X obj 90 90 f;
#X msg 90 65 0;
#X obj 90 38 loadbang;
#X obj 61 121 -;
#X floatatom 61 145 5 0 0 0 - - -;
#X obj 61 168 t f f;
#X floatatom 61 216 5 0 0 0 - - -;
#X floatatom 110 217 5 0 0 0 - - -;
#X obj 76 245 ||;
#X obj 76 270 sel 1;
#X obj 76 319 f;
#X floatatom 76 343 5 0 0 0 - - -;
#X obj 76 366 sel 1;
#X msg 76 390 0;
#X msg 108 390 1;
#X obj 199 444 tgl 15 0 empty empty empty 17 7 0 10 -262144 -1 -1 0
1;
#X obj 76 296 bng 15 250 50 0 empty empty empty 17 7 0 10 -262144 -1
-1;
#X obj 28 37 inlet;
#X obj 170 37 inlet;
#X obj 222 38 inlet;
#X text 176 13 min;
#X text 228 15 max;
#X obj 61 192 <;
#X obj 110 192 >;
#X text 28 12 val;
#X obj 199 466 outlet;
#X msg 199 416 1;
#X connect 0 0 1 0;
#X connect 0 1 4 0;
#X connect 1 0 4 1;
#X connect 2 0 1 0;
#X connect 2 0 11 1;
#X connect 3 0 2 0;
#X connect 3 0 27 0;
#X connect 4 0 5 0;
#X connect 5 0 6 0;
#X connect 6 0 23 0;
#X connect 6 1 24 0;
#X connect 7 0 9 0;
#X connect 8 0 9 1;
#X connect 9 0 10 0;
#X connect 10 0 17 0;
#X connect 11 0 12 0;
#X connect 12 0 13 0;
#X connect 13 0 14 0;
#X connect 13 1 15 0;
#X connect 14 0 16 0;
#X connect 15 0 16 0;
#X connect 16 0 11 1;
#X connect 16 0 26 0;
#X connect 17 0 11 0;
#X connect 18 0 0 0;
#X connect 19 0 23 1;
#X connect 20 0 24 1;
#X connect 23 0 7 0;
#X connect 24 0 8 0;
#X connect 27 0 16 0;
