#N canvas 921 95 1920 997 12;
#X obj 45 105 bng 15 250 50 0 empty empty empty 17 7 0 10 -262144 -1
-1;
#X obj 44 162 t b b;
#X obj 124 173 f;
#X floatatom 77 300 5 0 0 0 - - -;
#X obj 44 130 spigot;
#X obj 99 115 tgl 15 0 empty empty empty 17 7 0 10 -262144 -1 -1 1
1;
#X obj 134 221 bng 15 250 50 0 empty empty empty 17 7 0 10 -262144
-1 -1;
#X msg 134 251 0;
#X obj 154 289 f;
#X obj 111 349 -;
#X obj 111 386 t b f;
#X floatatom 143 444 10 0 0 0 - - -;
#X msg 53 433 1;
#X obj 99 84 loadbang;
#X obj 143 417 * 1000;
#X obj 24 209 delay 100;
#X obj 143 551 sel 1;
#X obj 143 525 ||;
#X obj 143 471 t f f;
#X obj 197 6 inlet;
#X obj 143 582 outlet;
#X obj 143 499 > 300;
#X obj 195 499 < -300;
#X connect 0 0 4 0;
#X connect 1 0 15 0;
#X connect 1 1 2 0;
#X connect 2 0 3 0;
#X connect 2 0 6 0;
#X connect 3 0 9 1;
#X connect 4 0 1 0;
#X connect 5 0 4 1;
#X connect 6 0 7 0;
#X connect 7 0 5 0;
#X connect 8 0 9 0;
#X connect 9 0 10 0;
#X connect 10 0 12 0;
#X connect 10 1 14 0;
#X connect 11 0 18 0;
#X connect 12 0 5 0;
#X connect 13 0 5 0;
#X connect 14 0 11 0;
#X connect 15 0 8 0;
#X connect 16 0 20 0;
#X connect 17 0 16 0;
#X connect 18 0 21 0;
#X connect 18 1 22 0;
#X connect 19 0 0 0;
#X connect 19 0 2 1;
#X connect 19 0 8 1;
#X connect 21 0 17 0;
#X connect 22 0 17 1;
