#N canvas 1286 22 1280 1357 12;
#X floatatom 149 66 5 0 0 0 - - -;
#X obj 117 105 f;
#X obj 149 129 sel 1;
#X obj 149 154 bng 15 250 50 0 empty empty empty 17 7 0 10 -262144
-1 -1;
#X floatatom 146 204 5 0 0 0 - - -;
#X obj 201 170 f;
#X obj 180 155 bng 15 250 50 0 empty empty empty 17 7 0 10 -262144
-1 -1;
#X obj 149 105 <= 0;
#X floatatom 358 64 5 0 0 0 - - -;
#X obj 326 103 f;
#X obj 355 174 * -1;
#X obj 358 127 sel 1;
#X obj 358 152 bng 15 250 50 0 empty empty empty 17 7 0 10 -262144
-1 -1;
#X floatatom 355 202 5 0 0 0 - - -;
#X obj 408 167 f;
#X obj 390 152 bng 15 250 50 0 empty empty empty 17 7 0 10 -262144
-1 -1;
#X obj 358 103 <= 0;
#X obj 149 45 cyclone/scale 0.5 1 -1 1;
#X obj 358 41 cyclone/scale 0.5 1 -1 1;
#X obj 146 176 * -1;
#X obj 146 268 || 1;
#X obj 146 316 sel 1;
#X obj 168 547 line;
#X obj 146 291 change;
#X obj 229 547 line;
#X obj 146 228 >= 0.8;
#X obj 355 227 >= 0.8;
#X floatatom 146 484 5 0 0 0 - - -;
#X floatatom 229 484 5 0 0 0 - - -;
#X obj 358 18 inlet;
#X obj 149 17 inlet;
#X obj 168 572 outlet;
#X obj 229 575 outlet;
#X text 232 593 depth;
#X text 173 590 rate;
#X obj 146 459 + 2.5;
#X obj 146 410 random 17.5;
#X obj 229 410 random 100;
#X msg 191 510 0 100;
#X msg 146 510 \$1 100;
#X msg 229 510 \$1 100;
#X connect 0 0 1 1;
#X connect 0 0 5 1;
#X connect 0 0 7 0;
#X connect 1 0 19 0;
#X connect 2 0 3 0;
#X connect 2 1 6 0;
#X connect 3 0 1 0;
#X connect 4 0 25 0;
#X connect 5 0 4 0;
#X connect 6 0 5 0;
#X connect 7 0 2 0;
#X connect 8 0 9 1;
#X connect 8 0 14 1;
#X connect 8 0 16 0;
#X connect 9 0 10 0;
#X connect 10 0 13 0;
#X connect 11 0 12 0;
#X connect 11 1 15 0;
#X connect 12 0 9 0;
#X connect 13 0 26 0;
#X connect 14 0 13 0;
#X connect 15 0 14 0;
#X connect 16 0 11 0;
#X connect 17 0 0 0;
#X connect 18 0 8 0;
#X connect 19 0 4 0;
#X connect 20 0 23 0;
#X connect 21 0 36 0;
#X connect 21 0 37 0;
#X connect 21 1 38 0;
#X connect 22 0 31 0;
#X connect 23 0 21 0;
#X connect 24 0 32 0;
#X connect 25 0 20 0;
#X connect 26 0 20 1;
#X connect 27 0 39 0;
#X connect 28 0 40 0;
#X connect 29 0 18 0;
#X connect 30 0 17 0;
#X connect 35 0 27 0;
#X connect 36 0 35 0;
#X connect 37 0 28 0;
#X connect 38 0 22 0;
#X connect 38 0 24 0;
#X connect 39 0 22 0;
#X connect 40 0 24 0;
