#N canvas 858 132 712 789 12;
#X obj 37 476 clip~ -0.5 0.5;
#X obj 38 442 *~ 40;
#X obj 37 543 lop~ 2000;
#X obj 39 396 *~;
#X obj 220 464 *~;
#X obj 38 508 *~ 0.1;
#X obj 192 297 line~;
#X obj 192 205 t b b;
#X obj 192 185 bng 15 250 50 0 empty empty empty 17 7 0 10 -262144
-1 -1;
#X obj 192 254 bng 15 250 50 0 empty empty empty 17 7 0 10 -262144
-1 -1;
#X obj 242 254 bng 15 250 50 0 empty empty empty 17 7 0 10 -262144
-1 -1;
#X msg 192 273 0 3000;
#X msg 243 273 1 2000;
#X obj 192 231 delay 2000;
#X obj 367 292 line~;
#X obj 367 200 t b b;
#X obj 367 249 bng 15 250 50 0 empty empty empty 17 7 0 10 -262144
-1 -1;
#X obj 417 249 bng 15 250 50 0 empty empty empty 17 7 0 10 -262144
-1 -1;
#X obj 367 226 delay 2000;
#X msg 367 268 1 3000;
#X msg 418 268 0 2000;
#X obj 306 268 loadbang;
#X obj 192 63 inlet;
#X obj 38 682 outlet~;
#X obj 43 60 inlet~;
#X connect 0 0 5 0;
#X connect 1 0 0 0;
#X connect 2 0 23 0;
#X connect 3 0 1 0;
#X connect 4 0 23 0;
#X connect 5 0 2 0;
#X connect 6 0 3 1;
#X connect 7 0 13 0;
#X connect 7 1 10 0;
#X connect 8 0 7 0;
#X connect 8 0 15 0;
#X connect 9 0 11 0;
#X connect 10 0 12 0;
#X connect 11 0 6 0;
#X connect 12 0 6 0;
#X connect 13 0 9 0;
#X connect 14 0 4 1;
#X connect 15 0 18 0;
#X connect 15 1 17 0;
#X connect 16 0 19 0;
#X connect 17 0 20 0;
#X connect 18 0 16 0;
#X connect 19 0 14 0;
#X connect 20 0 14 0;
#X connect 21 0 19 0;
#X connect 22 0 8 0;
#X connect 24 0 3 0;
#X connect 24 0 4 0;
