#N struct 2731-point float x0 float y0 float xs float ys float fg float
in float gridx float gridy;
#N canvas -8 -8 2560 1357 12;
#X obj 940 242 osc~ 4;
#X obj 774 41 tgl 45 0 empty empty empty 17 7 0 10 -262144 -1 -1 1
1;
#X obj 774 91 s toggle;
#X obj 935 17 loadbang;
#X obj 935 41 bng 45 250 50 0 empty empty empty 17 7 0 10 -262144 -1
-1;
#X obj 935 94 s randomize;
#X obj 1150 28 loadbang;
#X obj 1000 242 r toggle;
#X text 1150 12 Set notes;
#X obj 1073 242 r randomize;
#X msg 1000 271 all \$1;
#X msg 1073 271 all bang;
#X obj 40 616 catch~ out;
#X obj 39 765 lop~ 4000;
#X obj 39 789 throw~ out;
#X obj 823 377 throw~ out;
#X obj 881 242 r note;
#X obj 1150 113 s note;
#X text 48 648 Delay;
#X msg 824 242 all \$1;
#X text 980 40 Randomize;
#X text 820 40 Master Toggle;
#X obj 143 448 accelerometer;
#X obj 143 541 activity_detector;
#X obj 270 541 activity_detector;
#X obj 203 634 distortion;
#X obj 308 507 s xpos;
#X obj 367 508 s ypos;
#X obj 543 845 pack 0 0;
#X obj 278 786 r xpos;
#X obj 596 721 r ypos;
#X obj 278 825 cyclone/scale 0.5 1 -1 1;
#X obj 596 759 cyclone/scale 0.5 1 -1 1;
#X obj 543 884 else/slider2d 127 127 -1 1 -1 1 0 210 210 210 0 0 0
1 0 0 0.827414 -0.48794 empty empty;
#X obj 199 1198 throw~ speaker0;
#X obj 309 1198 throw~ speaker1;
#X obj 418 1198 throw~ speaker2;
#X obj 528 1198 throw~ speaker3;
#X obj 40 844 4ch_output_section;
#X text 37 823 OUTPUT;
#X obj 200 1120 pan4_with_center_and_distance_xy~;
#X obj 428 1081 tgl 15 0 empty empty empty 17 7 0 10 -262144 -1 -1
1 1;
#X obj 428 1056 loadbang;
#X obj 774 17 loadbang;
#X obj 1164 243 loadbang;
#X msg 1164 272 all 1;
#X obj 1279 221 r xpos;
#X obj 1381 223 r ypos;
#X obj 1280 284 s rate;
#X obj 1382 285 s depth;
#X obj 39 693 delwrite~ delBuff 450;
#X obj 39 717 delread~ delBuff 450;
#X obj 40 743 *~ 0.2;
#X obj 824 332 clone oscillator 15;
#X obj 39 670 hip~ 600;
#X obj 1280 254 border_detector;
#X floatatom 120 135 5 0 0 0 - - -;
#X msg 128 73 disconnect;
#X obj 120 99 netsend -b;
#X obj 187 172 mrpeach/unpackOSC;
#X obj 187 131 mrpeach/slipdec;
#X msg 120 45 connect ssi.imanidap.nl 8000;
#X obj 187 215 mrpeach/routeOSC /average/x /average/y /average/z,
f 70;
#X obj 120 17 loadbang;
#X obj 489 276 cyclone/scale -90 90 0 1;
#X obj 187 290 cyclone/scale 90 -90 0 1;
#X obj 489 377 spigot;
#X obj 187 263 clip -90 90;
#X text 335 42 max;
#X obj 528 357 accelerometer_corrector;
#X msg 607 334 -160;
#X msg 686 334 160;
#X obj 607 301 loadbang;
#X obj 187 376 spigot;
#X obj 824 180 r ypos;
#X msg 1150 67 0 48;
#X msg 1186 67 1 50;
#X msg 1223 68 2 52;
#X msg 1259 68 3 55;
#X msg 1297 68 4 57;
#X msg 1333 68 5 60;
#X msg 1370 68 6 72;
#X msg 1407 68 7 64;
#X msg 1443 68 8 67;
#X msg 1480 68 9 69;
#X msg 1516 68 10 72;
#X msg 1553 68 11 74;
#X msg 1590 68 12 76;
#X msg 1626 68 13 79;
#X msg 1664 69 14 81;
#X obj 824 210 pitch_sections;
#X obj 257 718 r rate;
#X obj 312 718 r depth;
#X obj 202 760 else/flanger~ 0 0 0.25 -tri;
#X connect 0 0 53 2;
#X connect 1 0 2 0;
#X connect 3 0 4 0;
#X connect 4 0 5 0;
#X connect 6 0 75 0;
#X connect 6 0 77 0;
#X connect 6 0 79 0;
#X connect 6 0 80 0;
#X connect 6 0 81 0;
#X connect 6 0 82 0;
#X connect 6 0 83 0;
#X connect 6 0 84 0;
#X connect 6 0 85 0;
#X connect 6 0 86 0;
#X connect 6 0 76 0;
#X connect 6 0 87 0;
#X connect 6 0 88 0;
#X connect 6 0 78 0;
#X connect 6 0 89 0;
#X connect 7 0 10 0;
#X connect 9 0 11 0;
#X connect 10 0 53 3;
#X connect 11 0 53 4;
#X connect 12 0 25 0;
#X connect 12 0 54 0;
#X connect 13 0 14 0;
#X connect 16 0 53 1;
#X connect 19 0 53 0;
#X connect 22 0 23 0;
#X connect 22 1 24 0;
#X connect 22 2 26 0;
#X connect 22 3 27 0;
#X connect 23 0 25 1;
#X connect 24 0 25 1;
#X connect 25 0 93 0;
#X connect 28 0 33 0;
#X connect 29 0 31 0;
#X connect 30 0 32 0;
#X connect 31 0 28 0;
#X connect 31 0 40 1;
#X connect 32 0 28 1;
#X connect 32 0 40 2;
#X connect 40 0 34 0;
#X connect 40 1 35 0;
#X connect 40 2 36 0;
#X connect 40 3 37 0;
#X connect 41 0 40 3;
#X connect 42 0 41 0;
#X connect 43 0 1 0;
#X connect 44 0 45 0;
#X connect 45 0 53 5;
#X connect 46 0 55 0;
#X connect 47 0 55 1;
#X connect 51 0 52 0;
#X connect 52 0 13 0;
#X connect 53 0 15 0;
#X connect 54 0 50 0;
#X connect 55 0 48 0;
#X connect 55 1 49 0;
#X connect 57 0 58 0;
#X connect 58 0 56 0;
#X connect 58 1 60 0;
#X connect 59 0 62 0;
#X connect 60 0 59 0;
#X connect 61 0 58 0;
#X connect 62 0 67 0;
#X connect 62 1 64 0;
#X connect 62 1 69 0;
#X connect 63 0 61 0;
#X connect 64 0 66 0;
#X connect 65 0 73 0;
#X connect 66 0 22 0;
#X connect 67 0 65 0;
#X connect 69 0 66 1;
#X connect 69 0 73 1;
#X connect 70 0 69 1;
#X connect 71 0 69 2;
#X connect 72 0 70 0;
#X connect 72 0 71 0;
#X connect 73 0 22 1;
#X connect 74 0 90 0;
#X connect 75 0 17 0;
#X connect 76 0 17 0;
#X connect 77 0 17 0;
#X connect 78 0 17 0;
#X connect 79 0 17 0;
#X connect 80 0 17 0;
#X connect 81 0 17 0;
#X connect 82 0 17 0;
#X connect 83 0 17 0;
#X connect 84 0 17 0;
#X connect 85 0 17 0;
#X connect 86 0 17 0;
#X connect 87 0 17 0;
#X connect 88 0 17 0;
#X connect 89 0 17 0;
#X connect 90 0 19 0;
#X connect 91 0 93 1;
#X connect 92 0 93 2;
#X connect 93 0 40 0;
