#N canvas 1444 2 1278 1348 12;
#X obj 138 66 inlet;
#X obj 192 66 inlet~;
#X obj 138 131 mtof;
#X obj 142 203 +~;
#X obj 265 66 inlet;
#X obj 265 166 metro 10000;
#X obj 374 66 inlet;
#X text 265 45 toggle;
#X text 374 45 randomizer;
#X text 192 45 LFO;
#X text 138 45 note;
#X obj 375 102 random 30000;
#X obj 375 126 + 10000;
#X floatatom 375 148 5 0 0 0 - - -;
#X obj 375 84 bng 15 250 50 0 empty empty empty 17 7 0 10 -262144 -1
-1;
#X obj 141 463 outlet~;
#X obj 142 339 *~;
#X obj 265 320 3stage_ramp;
#X obj 265 273 bng 15 250 50 0 empty empty empty 17 7 0 10 -262144
-1 -1;
#X obj 143 307 lop~ 6000;
#X floatatom 138 155 5 0 0 0 - - -;
#X obj 78 66 inlet;
#X text 78 45 tilt;
#X floatatom 78 90 5 0 0 0 - - -;
#X obj 142 279 osc~;
#X obj 829 298 inlet;
#X text 827 280 volume;
#X obj 141 391 *~;
#X msg 829 347 \$1 20;
#X obj 829 371 line~;
#X floatatom 829 323 5 0 0 0 - - -;
#X obj 141 439 *~ 0.2;
#X obj 265 295 random_ramp;
#X obj 192 131 *~ 0.075;
#X obj 124 239 *~;
#X connect 0 0 2 0;
#X connect 1 0 33 0;
#X connect 2 0 20 0;
#X connect 3 0 34 1;
#X connect 4 0 5 0;
#X connect 5 0 18 0;
#X connect 6 0 14 0;
#X connect 11 0 12 0;
#X connect 12 0 13 0;
#X connect 13 0 5 1;
#X connect 14 0 11 0;
#X connect 16 0 27 0;
#X connect 17 0 16 1;
#X connect 18 0 32 0;
#X connect 19 0 16 0;
#X connect 20 0 3 1;
#X connect 21 0 23 0;
#X connect 23 0 34 0;
#X connect 24 0 19 0;
#X connect 25 0 30 0;
#X connect 27 0 31 0;
#X connect 28 0 29 0;
#X connect 29 0 27 1;
#X connect 30 0 28 0;
#X connect 31 0 15 0;
#X connect 32 0 17 0;
#X connect 32 1 17 1;
#X connect 33 0 3 0;
#X connect 34 0 24 0;
