#N canvas 0 23 1070 469 12;
#X obj 23 120 *~ 0.125;
#X obj 23 184 cos~;
#X obj 23 91 +~ 1;
#X obj 126 158 -~ 0.25;
#X obj 126 186 cos~;
#X obj 308 175 *~ 0.125;
#X obj 308 239 cos~;
#X obj 308 146 +~ 1;
#X obj 351 211 -~ 0.25;
#X obj 351 239 cos~;
#X obj 33 215 *~;
#X obj 135 217 *~;
#X obj 23 309 *~;
#X obj 126 311 *~;
#X obj 23 57 inlet~;
#X obj 307 62 inlet~;
#X text 24 11 x (-1..1);
#X text 306 12 y (-1..1);
#X text 29 240 front left;
#X text 27 336 rear left;
#X obj 76 403 outlet~;
#X obj 155 403 outlet~;
#X obj 233 403 outlet~;
#X obj 312 403 outlet~;
#X text 142 241 front right;
#X text 133 337 rear right;
#X text 74 429 gain sp0;
#X text 152 429 gain sp1;
#X text 231 429 gain sp2;
#X text 312 429 gain sp3;
#X obj 630 51 cnv 15 404 370 empty empty empty 20 12 0 14 -233017 -66577
0;
#X text 649 70 speaker 0;
#X text 930 73 speaker 1;
#X text 929 371 speaker 2;
#X text 649 370 speaker 3;
#X text 985 226 x=1;
#X text 821 226 0 \, 0;
#X text 653 225 x=-1;
#X text 822 73 y=1;
#X text 821 371 y=-1;
#X text 627 17 space:;
#X text 305 35 positive is front \, negative is back;
#X text 162 186 =sin~;
#X text 389 239 =sin~;
#X connect 0 0 1 0;
#X connect 0 0 3 0;
#X connect 1 0 10 0;
#X connect 1 0 12 0;
#X connect 2 0 0 0;
#X connect 3 0 4 0;
#X connect 4 0 11 0;
#X connect 4 0 13 0;
#X connect 5 0 6 0;
#X connect 5 0 8 0;
#X connect 6 0 12 1;
#X connect 6 0 13 1;
#X connect 7 0 5 0;
#X connect 8 0 9 0;
#X connect 9 0 10 1;
#X connect 9 0 11 1;
#X connect 10 0 20 0;
#X connect 11 0 21 0;
#X connect 12 0 23 0;
#X connect 13 0 22 0;
#X connect 14 0 2 0;
#X connect 15 0 7 0;
