#N canvas 89 23 1025 641 12;
#X obj 53 111 inlet~;
#X obj 169 111 inlet~;
#X obj 320 112 inlet~;
#X obj 151 500 *~;
#X obj 189 500 *~;
#X obj 228 500 *~;
#X obj 267 500 *~;
#X obj 53 429 /~;
#X obj 151 565 outlet~;
#X obj 216 565 outlet~;
#X obj 280 565 outlet~;
#X obj 345 565 outlet~;
#X obj 247 166 *~;
#X obj 247 190 +~;
#X obj 370 164 *~;
#X obj 247 214 sqrt~;
#X obj 247 238 clip~ 1 1e+14;
#X text 328 214 distance from the centre of the room;
#X obj 608 100 inlet;
#X obj 608 369 cyclone/selector~ 2 1;
#X obj 608 151 + 1;
#X text 168 56 values between -1 and 1 are inside the space described
by the four speakers larger values are outside of this space.;
#X text 52 16 audio input;
#X text 169 16 x position;
#X text 320 16 y position;
#X text 606 16 loudness scaling based on the distance;
#X text 606 71 1 = 'rectangular' distance for loudness scaling;
#X text 606 56 0 = pythagorian distance for loudness scaling;
#X text 352 238 clip makes distance always larger than 1;
#X obj 169 430 pan4_with_center~;
#X obj 169 306 scale_x_and_y_to_-1_1~;
#X connect 0 0 7 0;
#X connect 1 0 12 0;
#X connect 1 0 12 1;
#X connect 1 0 30 0;
#X connect 2 0 14 0;
#X connect 2 0 14 1;
#X connect 2 0 30 1;
#X connect 3 0 8 0;
#X connect 4 0 9 0;
#X connect 5 0 10 0;
#X connect 6 0 11 0;
#X connect 7 0 3 0;
#X connect 7 0 4 0;
#X connect 7 0 5 0;
#X connect 7 0 6 0;
#X connect 12 0 13 0;
#X connect 13 0 15 0;
#X connect 14 0 13 1;
#X connect 15 0 16 0;
#X connect 16 0 19 1;
#X connect 18 0 20 0;
#X connect 19 0 7 1;
#X connect 20 0 19 0;
#X connect 29 0 3 1;
#X connect 29 1 4 1;
#X connect 29 2 5 1;
#X connect 29 3 6 1;
#X connect 30 0 29 0;
#X connect 30 1 29 1;
#X connect 30 2 19 2;
