#N canvas 1072 248 2560 1357 12;
#X obj 63 52 cyclone/scale 0.5 1 -1 1;
#X obj 63 221 sel 1;
#X obj 107 221 sel 1;
#X obj 63 246 bng 15 250 50 0 empty empty empty 17 7 0 10 -262144 -1
-1;
#X obj 107 246 bng 15 250 50 0 empty empty empty 17 7 0 10 -262144
-1 -1;
#X obj 157 89 t f f;
#X obj 157 145 &&;
#X obj 157 221 sel 1;
#X obj 157 246 bng 15 250 50 0 empty empty empty 17 7 0 10 -262144
-1 -1;
#X obj 63 341 line;
#X obj 63 116 > 0.5;
#X obj 107 117 < -0.5;
#X obj 157 117 < 0.5;
#X obj 199 117 > -0.5;
#X msg 63 286 1.5 250;
#X msg 121 286 0.5 250;
#X msg 180 286 1 250;
#X obj 63 24 inlet;
#X obj 63 376 outlet;
#X obj 157 182 change;
#X obj 107 181 change;
#X obj 63 181 change;
#X connect 0 0 5 0;
#X connect 0 0 10 0;
#X connect 0 0 11 0;
#X connect 1 0 3 0;
#X connect 2 0 4 0;
#X connect 3 0 14 0;
#X connect 4 0 15 0;
#X connect 5 0 12 0;
#X connect 5 1 13 0;
#X connect 6 0 19 0;
#X connect 7 0 8 0;
#X connect 8 0 16 0;
#X connect 9 0 18 0;
#X connect 10 0 21 0;
#X connect 11 0 20 0;
#X connect 12 0 6 0;
#X connect 13 0 6 1;
#X connect 14 0 9 0;
#X connect 15 0 9 0;
#X connect 16 0 9 0;
#X connect 17 0 0 0;
#X connect 19 0 7 0;
#X connect 20 0 2 0;
#X connect 21 0 1 0;
