#N canvas -7 0 958 988 12;
#X obj 581 472 pack f f f f;
#X obj 435 316 t b b b;
#X obj 435 427 bng 15 250 50 0 empty empty empty 17 7 0 10 -262144
-1 -1;
#X obj 435 287 inlet;
#X obj 435 447 outlet;
#X obj 581 496 outlet;
#X floatatom 670 413 5 0 0 0 - - -;
#X floatatom 544 414 5 0 0 0 - - -;
#X floatatom 458 414 5 0 0 0 - - -;
#X obj 458 365 random 600;
#X obj 544 365 random 2000;
#X obj 670 364 random 1400;
#X msg 635 365 1;
#X obj 670 388 + 350;
#X obj 458 389 + 150;
#X obj 544 389 + 1000;
#X connect 0 0 5 0;
#X connect 1 0 2 0;
#X connect 1 1 9 0;
#X connect 1 2 10 0;
#X connect 1 2 11 0;
#X connect 1 2 12 0;
#X connect 2 0 4 0;
#X connect 3 0 1 0;
#X connect 6 0 0 3;
#X connect 7 0 0 1;
#X connect 8 0 0 0;
#X connect 9 0 14 0;
#X connect 10 0 15 0;
#X connect 11 0 13 0;
#X connect 12 0 0 2;
#X connect 13 0 6 0;
#X connect 14 0 8 0;
#X connect 15 0 7 0;
