#N canvas 0 23 904 483 12;
#X obj 202 116 cyclone/greaterthan~ 1;
#X obj 184 150 *~;
#X obj 55 204 /~;
#X obj 184 177 +~;
#X obj 233 149 cyclone/rminus~ 1;
#X obj 184 89 abs~;
#X obj 117 204 /~;
#X obj 204 260 cyclone/greaterthan~ 1;
#X obj 186 294 *~;
#X obj 57 348 /~;
#X obj 186 321 +~;
#X obj 235 293 cyclone/rminus~ 1;
#X obj 186 233 abs~;
#X obj 119 348 /~;
#X obj 54 56 inlet~;
#X obj 117 56 inlet~;
#X obj 57 380 outlet~;
#X obj 119 380 outlet~;
#X text 54 23 x;
#X text 117 23 y;
#X text 382 116 if x>1 or x<-1 scale it back to 1 or -1 and scale y
accordingly, f 66;
#X text 384 263 if y>1 or y<-1 scale it back to 1 or -1 and scale x
accordingly, f 66;
#X text 59 408 x;
#X text 122 408 y;
#X obj 256 380 outlet~;
#X obj 256 354 *~;
#X text 254 408 amount of scaling;
#X connect 0 0 4 0;
#X connect 0 0 1 1;
#X connect 1 0 3 0;
#X connect 2 0 9 0;
#X connect 3 0 2 1;
#X connect 3 0 6 1;
#X connect 3 0 25 1;
#X connect 4 0 3 1;
#X connect 5 0 0 0;
#X connect 5 0 1 0;
#X connect 6 0 12 0;
#X connect 6 0 13 0;
#X connect 7 0 11 0;
#X connect 7 0 8 1;
#X connect 8 0 10 0;
#X connect 9 0 16 0;
#X connect 10 0 9 1;
#X connect 10 0 13 1;
#X connect 10 0 25 0;
#X connect 11 0 10 1;
#X connect 12 0 7 0;
#X connect 12 0 8 0;
#X connect 13 0 17 0;
#X connect 14 0 2 0;
#X connect 14 0 5 0;
#X connect 15 0 6 0;
#X connect 25 0 24 0;
