#N canvas 1464 262 450 300 12;
#X obj 72 252 t b f;
#X obj 72 276 f;
#X obj 72 300 + 1;
#X obj 72 348 pack;
#X obj 72 324 mod 5;
#X floatatom 75 92 5 0 0 0 - - -;
#X obj 43 131 f;
#X obj 72 202 * -1;
#X obj 75 155 sel 1;
#X obj 75 180 bng 15 250 50 0 empty empty empty 17 7 0 10 -262144 -1
-1;
#X floatatom 72 226 5 0 0 0 - - -;
#X obj 127 196 f;
#X obj 106 181 bng 15 250 50 0 empty empty empty 17 7 0 10 -262144
-1 -1;
#X obj 75 131 <= 0;
#X obj 281 250 t b f;
#X obj 281 274 f;
#X obj 281 298 + 1;
#X floatatom 284 90 5 0 0 0 - - -;
#X obj 252 129 f;
#X obj 281 200 * -1;
#X obj 284 153 sel 1;
#X obj 284 178 bng 15 250 50 0 empty empty empty 17 7 0 10 -262144
-1 -1;
#X floatatom 281 224 5 0 0 0 - - -;
#X obj 334 193 f;
#X obj 316 178 bng 15 250 50 0 empty empty empty 17 7 0 10 -262144
-1 -1;
#X obj 284 129 <= 0;
#X obj 281 396 -;
#X obj 281 345 t b f;
#X obj 281 321 mod 5;
#X msg 281 369 9;
#X obj 75 50 r xpos;
#X obj 284 43 r ypos;
#X obj 75 71 cyclone/scale 0.5 1 -1 1;
#X obj 284 67 cyclone/scale 0.5 1 -1 1;
#X obj 281 421 pack;
#X connect 0 0 1 0;
#X connect 0 1 3 1;
#X connect 1 0 2 0;
#X connect 2 0 4 0;
#X connect 4 0 1 1;
#X connect 4 0 3 0;
#X connect 5 0 6 1;
#X connect 5 0 11 1;
#X connect 5 0 13 0;
#X connect 6 0 7 0;
#X connect 7 0 10 0;
#X connect 8 0 9 0;
#X connect 8 1 12 0;
#X connect 9 0 6 0;
#X connect 10 0 0 0;
#X connect 11 0 10 0;
#X connect 12 0 11 0;
#X connect 13 0 8 0;
#X connect 14 0 15 0;
#X connect 14 1 34 1;
#X connect 15 0 16 0;
#X connect 16 0 28 0;
#X connect 17 0 18 1;
#X connect 17 0 23 1;
#X connect 17 0 25 0;
#X connect 18 0 19 0;
#X connect 19 0 22 0;
#X connect 20 0 21 0;
#X connect 20 1 24 0;
#X connect 21 0 18 0;
#X connect 22 0 14 0;
#X connect 23 0 22 0;
#X connect 24 0 23 0;
#X connect 25 0 20 0;
#X connect 26 0 34 0;
#X connect 27 0 29 0;
#X connect 27 1 26 1;
#X connect 28 0 15 1;
#X connect 28 0 27 0;
#X connect 29 0 26 0;
#X connect 30 0 32 0;
#X connect 31 0 33 0;
#X connect 32 0 5 0;
#X connect 33 0 17 0;
